<svg width="140" height="50" viewBox="0 0 140 50" fill="none" xmlns="http://www.w3.org/2000/svg">
<path d="M140 3.56854C140 5.05141 139.064 6.41913 137.603 6.92044C125.697 11.0053 122.19 19.5108 119.333 26.4505C118.723 27.9249 118.15 29.3193 117.528 30.5803C115.077 35.5527 111.966 36.7659 109.791 36.9063C109.641 36.9162 109.491 36.9204 109.342 36.9204C106.355 36.9218 103.308 35.0008 101.11 31.7051C100.241 30.4005 99.5234 28.4669 98.6148 26.0194C97.806 23.8372 96.8876 21.3671 95.8527 19.4097C95.2601 18.2905 94.7743 17.6164 94.4162 17.2092C94.0539 16.7964 93.4108 16.8104 93.0569 17.2331C92.6525 17.719 92.1006 18.5784 91.4912 20.0795C90.3215 22.9581 89.698 26.3339 89.4298 28.092C88.8793 31.7065 87.0342 33.5194 85.5836 34.4054C85.0837 34.7087 84.574 34.939 84.0656 35.1145C83.4604 35.3224 81.3358 35.5288 79.7266 35.547C80.1633 34.529 80.5326 33.4772 80.8261 32.3946C80.9159 32.0758 80.9946 31.7542 81.0676 31.4313C81.2909 30.4567 81.4538 29.4569 81.5507 28.4416C81.6841 28.422 81.8006 28.3841 81.8835 28.3321C82.0464 28.231 82.2781 27.8266 82.3988 27.0192C83.108 22.3754 84.9686 14.1087 89.4719 10.9141C91.1668 9.71345 93.1047 9.27252 95.0748 9.64184C100.497 10.6599 103.148 17.8046 105.279 23.5451C105.875 25.1501 106.616 27.1484 107.026 27.762C107.999 29.2224 110.2 29.3628 111.148 27.4348C111.663 26.3873 112.194 25.101 112.757 23.7403C115.828 16.2866 120.355 5.30136 135.3 0.191366C137.269 -0.482664 139.392 0.687065 139.894 2.70775C139.965 2.99421 139.999 3.28208 139.999 3.56714L140 3.56854Z" fill="#95DD24"/>
<path d="M138.226 2.91872C138.226 3.13638 138.08 3.33296 137.86 3.39475C122.887 7.49369 118.853 17.6252 115.897 25.0438C115.346 26.4297 114.824 27.7399 114.279 28.8773C112.91 31.7419 111.233 33.2697 109.303 33.4172C109.213 33.4228 109.126 33.427 109.039 33.4298C106.264 33.4621 104.114 30.6494 103.509 29.7634C102.846 28.7959 102.152 26.99 101.348 24.8977C99.671 20.5376 97.3737 14.5682 94.3111 14.0318C93.4503 13.8787 92.6597 14.0767 91.8958 14.6328C88.5425 17.0719 87.165 25.2193 86.8238 27.657C86.5555 29.5668 85.7832 30.9317 84.5306 31.7181C83.2668 32.51 81.8078 32.5199 80.8291 32.3963C80.919 32.0775 80.9976 31.756 81.0706 31.433C81.2742 31.4555 81.4989 31.4695 81.7376 31.4695C82.4566 31.4695 83.2879 31.3375 84.0125 30.8825C85.0053 30.2562 85.6259 29.1259 85.8506 27.5208C86.3056 24.27 87.752 16.433 91.3187 13.8394C92.296 13.1289 93.3576 12.8677 94.4796 13.0629C98.0913 13.6962 100.405 19.7119 102.266 24.5467C103.048 26.58 103.722 28.3353 104.32 29.2087C105.454 30.8657 107.333 32.5831 109.228 32.4384C110.784 32.3191 112.188 30.978 113.395 28.4532C113.925 27.3467 114.439 26.052 114.986 24.6815C116.46 20.9785 118.297 16.367 121.716 12.2372C125.631 7.50633 130.831 4.30048 137.606 2.44689C137.87 2.37528 138.143 2.53396 138.212 2.79795C138.221 2.83867 138.228 2.8794 138.228 2.92013L138.226 2.91872Z" fill="white" stroke="white" stroke-width="0.842538"/>
<path d="M39.4279 46.9951C39.4279 48.1747 38.4731 49.1296 37.2949 49.1296H8.77222C3.8532 49.1296 0 46.1484 0 42.3443V9.51766C0 5.7136 3.8518 2.73242 8.77222 2.73242H37.2949C38.4731 2.73242 39.4279 3.6873 39.4279 4.86545C39.4279 5.45522 39.1892 5.98883 38.8031 6.37499C38.4169 6.76116 37.8847 6.99988 37.2949 6.99988H8.77222C6.19265 6.99988 4.26745 8.32968 4.26745 9.51766V42.3443C4.26745 43.5323 6.19265 44.8621 8.77222 44.8621H37.2949C38.4731 44.8621 39.4279 45.817 39.4279 46.9951Z" fill="#256670"/>
<path d="M57.6219 1.89062C49.2232 1.89062 41.8187 6.21706 37.519 12.7608H17.5803C16.28 12.7608 15.0963 13.293 14.2383 14.151C13.3817 15.0089 12.8481 16.1899 12.8481 17.493C12.8481 20.095 14.9769 22.2239 17.5789 22.2239H33.8638C33.6742 23.4343 33.5773 24.6742 33.5773 25.9352C33.5773 27.1962 33.6742 28.4362 33.8638 29.6466H17.5789C16.2786 29.6466 15.0948 30.1788 14.2369 31.0368C13.3803 31.8934 12.8467 33.0757 12.8467 34.3789C12.8467 36.9809 14.9755 39.1097 17.5775 39.1097H36.7733C37.0135 39.1097 37.2494 39.0915 37.4797 39.0564C41.7766 45.6282 49.1994 49.9799 57.6191 49.9799C67.5203 49.9799 76.0426 43.9641 79.7231 35.3955C80.1598 34.3775 80.5291 33.3257 80.8226 32.243C80.9125 31.9243 80.9911 31.6027 81.0641 31.2797C81.2874 30.3052 81.4503 29.3054 81.5472 28.2901C81.6244 27.5164 81.6623 26.73 81.6623 25.9352C81.6623 12.6779 70.8778 1.89062 57.6177 1.89062H57.6219ZM57.6219 41.8536C48.8441 41.8536 41.7036 34.7131 41.7036 25.9352C41.7036 17.1574 48.8441 10.0169 57.6219 10.0169C66.3998 10.0169 73.5403 17.1574 73.5403 25.9352C73.5403 34.7131 66.3998 41.8536 57.6219 41.8536Z" fill="#95DD24"/>
<path d="M57.9037 35.7879C63.3464 35.7879 67.7586 31.3757 67.7586 25.933C67.7586 20.4903 63.3464 16.0781 57.9037 16.0781C52.461 16.0781 48.0488 20.4903 48.0488 25.933C48.0488 31.3757 52.461 35.7879 57.9037 35.7879Z" fill="#8ACC23"/>
</svg>
