<svg width="70" height="70" viewBox="0 0 70 70" fill="none" xmlns="http://www.w3.org/2000/svg">
<circle cx="35" cy="35" r="35" fill="#DCFAF8"/>
<g clip-path="url(#clip0_301_7319)">
<path d="M47.9818 34.3653H46.1975C45.7913 33.2291 45.1368 32.2118 44.2991 31.3801L47.0509 30.1654C47.444 29.9918 47.6593 29.5581 47.5475 29.1433C47.2156 27.9118 46.0955 27.0059 44.7648 27.0059H42.4951C41.19 27.0059 40.088 27.8776 39.733 29.0729H37.3359C36.4356 32.3986 33.3946 34.8522 29.7913 34.8522C27.5917 34.8522 25.6018 33.9377 24.1802 32.469C23.7799 33.0403 23.4519 33.6664 23.2102 34.3342C22.4923 34.1771 21.9019 33.6092 21.7369 32.8697C21.6312 32.3959 21.1611 32.0972 20.6876 32.2033C20.2139 32.3091 19.9155 32.7788 20.0213 33.2526C20.2011 34.0581 20.6535 34.7894 21.2951 35.3118C21.7343 35.6693 22.2507 35.9182 22.7978 36.043C22.7552 36.378 22.7332 36.7195 22.7332 37.066V37.9182C22.7332 41.1482 24.6402 43.9303 27.3846 45.191V47.1279C27.3846 48.182 28.2392 49.0366 29.2933 49.0366C30.3475 49.0366 31.2021 48.182 31.2021 47.1279V45.9113H38.3524V47.1279C38.3524 48.182 39.207 49.0366 40.2612 49.0366C41.3154 49.0366 42.1699 48.182 42.1699 47.1279V45.1165C44.1766 44.1404 45.7132 42.3424 46.3467 40.1577H47.9816C49.0964 40.1577 50.0001 39.2498 50.0001 38.1298V36.3931C50.0002 35.2732 49.0965 34.3653 47.9818 34.3653ZM41.4964 34.8727C41.0128 34.8727 40.6207 34.4807 40.6207 33.997C40.6207 33.5133 41.0127 33.1213 41.4964 33.1213C41.9801 33.1213 42.3722 33.5133 42.3722 33.997C42.3722 34.4807 41.9801 34.8727 41.4964 34.8727Z" fill="#16DBCC"/>
<path d="M29.7915 20.9629C26.451 20.9629 23.7334 23.6839 23.7334 27.0284C23.7334 30.3729 26.451 33.0939 29.7915 33.0939C33.1319 33.0939 35.8495 30.3729 35.8495 27.0284C35.8495 23.6838 33.1318 20.9629 29.7915 20.9629ZM29.2289 26.1016H30.3541C31.6232 26.1016 32.6557 27.1348 32.6557 28.4049C32.6557 29.5674 31.7903 30.5309 30.6704 30.6857V31.0159C30.6704 31.5013 30.2769 31.8948 29.7915 31.8948C29.3061 31.8948 28.9126 31.5013 28.9126 31.0159V30.708H28.6883C27.7173 30.708 26.9272 29.9176 26.9272 28.946C26.9272 28.4606 27.3208 28.0671 27.8062 28.0671C28.2915 28.0671 28.6851 28.4606 28.6851 28.946L30.354 28.9502C30.6539 28.9502 30.8978 28.7055 30.8978 28.4048C30.8978 28.1041 30.6539 27.8594 30.354 27.8594H29.2289C27.9597 27.8594 26.9272 26.8262 26.9272 25.5562C26.9272 24.3936 27.7926 23.43 28.9126 23.2752V23.0409C28.9126 22.5555 29.3061 22.162 29.7915 22.162C30.2769 22.162 30.6704 22.5555 30.6704 23.0409V23.2529H30.8946C31.8656 23.2529 32.6557 24.0434 32.6557 25.015C32.6557 25.5004 32.2622 25.8939 31.7768 25.8939C31.2914 25.8939 30.8979 25.5004 30.8979 25.015C30.8979 25.0136 30.8977 25.013 30.8977 25.013L29.2289 25.0107C28.929 25.0107 28.6851 25.2554 28.6851 25.5562C28.6851 25.8569 28.929 26.1016 29.2289 26.1016Z" fill="#16DBCC"/>
</g>
<defs>
<clipPath id="clip0_301_7319">
<rect width="30" height="30" fill="white" transform="translate(20 20)"/>
</clipPath>
</defs>
</svg>
