<svg width="34" height="30" viewBox="0 0 34 30" fill="none" xmlns="http://www.w3.org/2000/svg">
<path d="M18.9355 7.04117C19.8921 6.09386 20.4799 5.66856 21.6343 5.13086V20.9053L18.9355 21.3974V7.04117Z" fill="black"/>
<path d="M27.5579 14.9724C28.1174 13.9304 28.1833 13.4673 28.333 12.3984L7.6469 16.3618C7.15636 17.3259 6.99846 17.8648 6.92285 18.8221L27.5579 14.9724Z" fill="black"/>
<path d="M27.5584 19.8046C28.1179 18.7626 28.1837 18.2995 28.3335 17.2305L19.0345 18.9671C18.9688 19.9223 19.0443 20.4123 18.9688 21.3695L27.5584 19.8046Z" fill="black"/>
<path d="M27.5584 24.6345C28.1179 23.5925 28.1837 23.1295 28.3335 22.0605L19.8573 23.6842C19.4295 24.2052 19.1661 25.0734 18.9688 26.1995L27.5584 24.6345Z" fill="black"/>
<path d="M14.0981 22.9894C14.9208 22.0921 15.7765 20.9634 16.3689 20.0371L6.39104 21.9454C5.90049 22.9095 5.74259 23.4485 5.66699 24.4056L14.0981 22.9894Z" fill="black"/>
<path d="M13.6699 5.71109C14.6264 4.76378 15.2142 4.33848 16.3686 3.80078V20.0963L13.6699 20.5883V5.71109Z" fill="black"/>
</svg>
