<svg width="70" height="70" viewBox="0 0 70 70" fill="none" xmlns="http://www.w3.org/2000/svg">
<circle cx="35" cy="35" r="35" fill="#FFE0EB"/>
<g clip-path="url(#clip0_301_7338)">
<rect width="36" height="36" transform="translate(17 17)" fill="#FFE0EB"/>
<path d="M26.815 24.5015C26.6948 24.3789 26.5517 24.2811 26.3937 24.2139C26.2358 24.1466 26.0661 24.1111 25.8944 24.1094C25.7228 24.1078 25.5525 24.1399 25.3932 24.2041C25.234 24.2683 25.089 24.3632 24.9664 24.4835C23.5807 25.8618 22.4815 27.5007 21.732 29.3058C20.9826 31.1109 20.5977 33.0464 20.5996 35.0009C20.5976 37.0304 21.0126 39.0386 21.8189 40.9011C22.6252 42.7636 23.8056 44.4405 25.2868 45.8279C25.5362 46.0584 25.8655 46.1826 26.2049 46.1742C26.5444 46.1658 26.8672 46.0254 27.1048 45.7829C27.6736 45.2141 27.6034 44.3087 27.0562 43.7849C25.8673 42.6518 24.9212 41.2889 24.2754 39.7788C23.6296 38.2688 23.2976 36.6432 23.2996 35.0009C23.2996 31.6781 24.6334 28.6649 26.797 26.4725C27.319 25.9415 27.373 25.0595 26.815 24.5015ZM29.9848 27.6749C29.7478 27.4309 29.4237 27.2909 29.0836 27.2855C28.7435 27.2801 28.4151 27.4098 28.1704 27.6461C27.1963 28.607 26.4231 29.7522 25.8959 31.0149C25.3687 32.2776 25.098 33.6325 25.0996 35.0009C25.0996 38.0465 26.4136 40.7843 28.507 42.6779C28.7543 42.8959 29.076 43.0104 29.4054 42.9977C29.7348 42.985 30.0467 42.8459 30.2764 42.6095C30.8668 42.0191 30.757 41.0903 30.2026 40.5683C29.4429 39.8537 28.8378 38.991 28.4245 38.0335C28.0112 37.0759 27.7985 36.0438 27.7996 35.0009C27.7996 32.9309 28.6222 31.0517 29.9596 29.6729C30.4744 29.1437 30.559 28.2473 29.9848 27.6749ZM40.0144 27.6731C40.2515 27.4291 40.5756 27.2891 40.9157 27.2837C41.2558 27.2783 41.5841 27.408 41.8288 27.6443C42.8032 28.6054 43.5765 29.7509 44.1037 31.0139C44.6309 32.2769 44.9015 33.6322 44.8996 35.0009C44.8996 38.0465 43.5856 40.7843 41.4922 42.6779C41.2449 42.8959 40.9233 43.0104 40.5938 42.9977C40.2644 42.985 39.9525 42.8459 39.7228 42.6095C39.1324 42.0191 39.2422 41.0903 39.7966 40.5683C40.5563 39.8537 41.1615 38.991 41.5748 38.0335C41.9881 37.0759 42.2007 36.0438 42.1996 35.0009C42.1996 32.9309 41.377 31.0517 40.0396 29.6729C39.5248 29.1437 39.4402 28.2455 40.0144 27.6731ZM43.1842 24.5015C43.3044 24.3789 43.4475 24.2811 43.6055 24.2139C43.7635 24.1466 43.9331 24.1111 44.1048 24.1094C44.2765 24.1078 44.4468 24.1399 44.606 24.2041C44.7653 24.2683 44.9103 24.3632 45.0328 24.4835C46.4185 25.8618 47.5178 27.5007 48.2672 29.3058C49.0167 31.1109 49.4015 33.0464 49.3996 35.0009C49.4017 37.0304 48.9866 39.0386 48.1804 40.9011C47.3741 42.7636 46.1937 44.4405 44.7124 45.8279C44.4631 46.0584 44.1337 46.1826 43.7943 46.1742C43.4548 46.1658 43.132 46.0254 42.8944 45.7829C42.3256 45.2141 42.3958 44.3087 42.9448 43.7849C44.1334 42.6517 45.0792 41.2886 45.7246 39.7786C46.3701 38.2686 46.7018 36.6431 46.6996 35.0009C46.6996 31.6781 45.3658 28.6649 43.2022 26.4725C42.6802 25.9415 42.6262 25.0595 43.1842 24.5015ZM34.9996 32.3009C34.2835 32.3009 33.5968 32.5853 33.0904 33.0917C32.5841 33.598 32.2996 34.2848 32.2996 35.0009C32.2996 35.717 32.5841 36.4037 33.0904 36.9101C33.5968 37.4164 34.2835 37.7009 34.9996 37.7009C35.7157 37.7009 36.4025 37.4164 36.9088 36.9101C37.4152 36.4037 37.6996 35.717 37.6996 35.0009C37.6996 34.2848 37.4152 33.598 36.9088 33.0917C36.4025 32.5853 35.7157 32.3009 34.9996 32.3009Z" fill="#FF3F83"/>
</g>
<defs>
<clipPath id="clip0_301_7338">
<rect width="30" height="30" fill="white" transform="translate(20 20)"/>
</clipPath>
</defs>
</svg>
