<svg width="70" height="70" viewBox="0 0 70 70" fill="none" xmlns="http://www.w3.org/2000/svg">
<circle cx="35" cy="35" r="35" fill="#E7EDFF"/>
<path d="M30.5 36.5C33.8137 36.5 36.5 33.8137 36.5 30.5C36.5 27.1863 33.8137 24.5 30.5 24.5C27.1863 24.5 24.5 27.1863 24.5 30.5C24.5 33.8137 27.1863 36.5 30.5 36.5Z" stroke="#0C44EE" stroke-width="2" stroke-linecap="round" stroke-linejoin="round"/>
<path d="M41 45.5C41 40.529 36.299 36.5 30.5 36.5C24.701 36.5 20 40.529 20 45.5M39.5 36.5C40.5026 36.4999 41.4892 36.2487 42.3696 35.7691C43.2501 35.2895 43.9963 34.597 44.5402 33.7548C45.084 32.9125 45.4082 31.9474 45.483 30.9476C45.5577 29.9478 45.3808 28.9452 44.9683 28.0315C44.5558 27.1177 43.921 26.3218 43.1217 25.7166C42.3224 25.1113 41.3842 24.7161 40.3927 24.5668C39.4013 24.4176 38.3883 24.5192 37.4463 24.8623C36.5042 25.2054 35.6632 25.7791 35 26.531" stroke="#0C44EE" stroke-width="2" stroke-linecap="round" stroke-linejoin="round"/>
<path d="M50 45.5009C50 40.5299 45.299 36.5009 39.5 36.5009C38.2895 36.5009 36.3455 36.0614 35 34.6484" stroke="#0C44EE" stroke-width="2" stroke-linecap="round" stroke-linejoin="round"/>
</svg>
